<svg xmlns="http://www.w3.org/2000/svg" width="94" height="112" viewBox="0 0 94 112" fill="none"><path d="M51.9215 86.1431L51.8551 86.2082L51.6332 89.517C51.6166 89.7674 51.418 89.9619 51.1743 89.9799L50.7711 101.478L53.1409 101.474C53.4146 101.474 53.6364 101.696 53.6364 101.97V101.993C53.6351 102.011 53.2924 108.628 52.0072 110.478C51.9009 110.63 51.7462 110.77 51.5502 110.895C50.3959 111.633 47.2914 111.986 44.2753 112C41.2486 112.012 38.2511 111.678 37.3352 111.041C37.3233 111.034 37.3133 111.026 37.3027 111.016C37.1818 110.928 37.0848 110.828 37.0131 110.717C36.226 109.484 35.9544 104.786 35.8441 102.851C35.8195 102.439 35.9132 102.352 35.8594 102.266C35.7139 102.033 35.7857 101.726 36.0188 101.581C36.1098 101.525 36.2107 101.501 36.3097 101.507L38.4291 101.503L37.8998 89.6565C37.8984 89.6266 37.8998 89.5974 37.9038 89.5682L37.739 89.5635C37.478 89.5562 37.2695 89.349 37.2562 89.0921L37.0749 85.6365C37.0629 85.3961 37.2243 85.1862 37.4495 85.1291C31.7221 80.4444 25.5963 75.0751 19.9175 68.905C14.1795 62.6724 8.89592 55.6224 4.93137 47.6335C2.27992 42.2881 0.694494 37.367 0.183732 33.1092C-0.234044 29.6357 0.0601912 26.5925 1.07109 24.1083C2.09593 21.589 3.85007 19.6487 6.33414 18.417C7.61868 17.7802 9.09717 17.3346 10.7683 17.0995C11.0625 16.4448 11.3873 15.8053 11.7413 15.1851C13.524 12.0662 16.0678 9.41806 19.517 7.54219C24.0029 5.10321 30.0132 3.97436 37.8666 4.82565C37.9675 4.83627 38.0599 4.87744 38.1322 4.93853C40.4257 2.38468 43.1396 0.841482 45.9517 0.261786C48.4816 -0.259476 51.0873 0.00149079 53.5342 1.01081C55.9691 2.01549 58.2446 3.76055 60.1282 6.21014C60.376 6.5322 60.6171 6.86753 60.8509 7.21415C68.3436 6.29448 74.0105 7.78854 78.0913 10.7933C80.4651 12.5403 82.2995 14.794 83.6405 17.3771C84.7889 17.6819 85.8251 18.0664 86.7576 18.5219C90.3197 20.263 92.3527 23.0346 93.2195 26.4404C94.073 29.7918 93.7854 33.7513 92.7107 37.9347C91.8493 41.2907 90.4837 44.7941 88.7967 48.2424C88.7096 48.4197 88.6226 48.5957 88.5356 48.7717C88.5356 48.9244 88.4659 49.0744 88.3357 49.1714C83.8412 58.1019 78.3975 65.1851 72.3567 71.0571C66.1133 77.1263 59.2309 81.8987 52.1002 86.08C52.045 86.1132 51.9826 86.1345 51.9215 86.1431ZM50.182 89.9513L38.8921 89.6L38.8934 89.614L39.4241 101.501L49.7775 101.48L50.182 89.9513Z" fill="black"></path><path d="M37.9037 110.224C38.6157 110.718 41.131 110.99 43.8176 111.007L43.9332 105.051L36.9824 105.038C37.1352 107.064 37.3989 109.477 37.8505 110.184C37.8532 110.188 37.8625 110.196 37.8791 110.208L37.9037 110.224Z" fill="#FFE800"></path><path d="M51.1898 109.911C51.7803 109.061 52.1509 106.917 52.37 105.068L44.9251 105.054L44.8096 111.003C47.4882 110.957 50.0892 110.653 51.0171 110.061C51.0975 110.008 51.1559 109.958 51.1898 109.911Z" fill="#FFE800"></path><path d="M43.9826 102.484L36.8193 102.498L36.8373 102.797C36.8565 103.137 36.8811 103.566 36.9123 104.045L43.9528 104.058L43.9826 102.484Z" fill="#FFE800"></path><path d="M52.6121 102.468L44.9765 102.483L44.9453 104.061L52.4786 104.075C52.5423 103.418 52.5862 102.851 52.6121 102.468Z" fill="#FFE800"></path><path d="M9.34648 38.6166C8.42525 34.3509 8.0865 29.8581 8.54878 25.5884C8.82907 23.0067 9.40095 20.5033 10.3142 18.1792C8.99247 18.4136 7.81154 18.7941 6.7754 19.308C4.52048 20.4263 2.92773 22.1899 1.99521 24.4821C1.0494 26.8089 0.775762 29.6861 1.17428 32.993C1.29715 34.0236 1.4871 35.0946 1.74016 36.2029L1.74284 36.2055C2.83011 37.3849 4.25944 38.4772 5.7087 38.9958C6.99059 39.4546 8.28776 39.452 9.34648 38.6166Z" fill="#FFE800"></path><path d="M12.8457 48.7723C11.4901 46.0332 10.3689 42.9282 9.58453 39.6658C8.30131 40.4806 6.82151 40.4521 5.37225 39.9335C4.26039 39.5357 3.16581 38.8418 2.20605 38.027C2.97917 40.7675 4.12223 43.7111 5.63326 46.8068C5.68241 46.836 5.72824 46.8739 5.76544 46.9197C6.18188 47.4257 6.65811 47.9005 7.16887 48.3141C8.04693 49.0253 9.0213 49.5492 9.96578 49.7292C10.8571 49.8979 11.7246 49.7551 12.4512 49.1575C12.5853 49.0466 12.7175 48.9184 12.8457 48.7723Z" fill="#ED1C24"></path><path d="M20.1352 60.6492C17.6419 57.0555 15.4952 53.6995 13.492 50.0188C13.4362 49.9158 13.3804 49.8123 13.3246 49.7073C13.2456 49.7837 13.1639 49.8561 13.0809 49.9245C12.1012 50.7306 10.9521 50.9278 9.78316 50.706C8.82673 50.5248 7.859 50.0566 6.97363 49.4152C8.59359 52.4259 10.4022 55.2978 12.3469 58.0389C12.4731 58.0409 12.5987 58.0913 12.6936 58.1883C13.8208 59.3404 15.1432 60.1339 16.5466 60.5243C17.703 60.8457 18.9211 60.8962 20.1352 60.6492Z" fill="#BDE3F4"></path><path d="M36.05 82.6848C32.6354 77.8647 29.6546 73.7962 27.021 70.2025C24.6824 67.0111 22.6181 64.1937 20.7491 61.5289C19.244 61.9107 17.7224 61.8822 16.2811 61.4811C15.5857 61.2879 14.9109 61.009 14.2666 60.6471C16.2917 63.3025 18.4357 65.8285 20.6501 68.233C25.6289 73.6421 30.9557 78.4337 36.05 82.6848Z" fill="white"></path><path d="M35.3613 49.2047C35.8568 52.1822 36.4054 55.1265 36.9793 57.9705C39.6374 60.4812 43.1164 62.3013 46.9641 62.4865C50.1927 62.6419 53.6956 61.6445 57.2085 58.9353C57.9597 56.1783 58.7262 53.2307 59.494 50.1024C54.8952 53.2326 50.6118 54.5155 46.6592 54.3157C42.5 54.1058 38.7301 52.2598 35.3613 49.2047Z" fill="#BDE3F4"></path><path d="M33.9688 39.3677C34.2789 42.0909 34.6628 44.8459 35.0972 47.5824C38.5351 51.0147 42.4113 53.1071 46.7053 53.3235C50.6931 53.5247 55.0661 52.1124 59.8124 48.6607L59.8137 48.6627C59.8257 48.6541 59.837 48.6468 59.8489 48.6395C60.5158 45.8745 61.18 42.9753 61.8335 39.9507C57.3489 42.5092 52.418 43.5086 47.7753 43.4076C42.4292 43.2901 37.4544 41.7104 33.9688 39.3677Z" fill="#ED1C24"></path><path d="M35.8404 10.1849C32.7825 16.4454 32.6503 26.9031 33.8246 38.0448C37.1701 40.5615 42.2711 42.294 47.7958 42.4155C52.5435 42.5197 57.6006 41.432 62.1171 38.6285C62.4983 36.8303 62.8763 34.9903 63.2456 33.1078C65.6207 21.0378 63.4455 12.1524 59.3435 6.81829C57.5688 4.50947 55.4334 2.86932 53.1579 1.93039C50.8943 0.996763 48.4866 0.754395 46.1513 1.23581C42.1682 2.05589 38.379 4.98757 35.8404 10.1849Z" fill="#FFE800"></path><path d="M32.8378 37.9566C31.6715 26.7087 31.8283 16.1287 34.9446 9.74941C35.6779 8.24871 36.5115 6.92663 37.4247 5.77919C29.9526 5.01888 24.2432 6.10323 19.9924 8.41471C16.7153 10.1963 14.3003 12.7123 12.6073 15.6759C12.2725 16.2615 11.965 16.8658 11.686 17.484V17.4886C11.7079 17.6752 11.6236 17.8505 11.4795 17.9521C10.4586 20.3553 9.83095 22.9768 9.53605 25.694C9.07908 29.9046 9.42313 34.3383 10.343 38.541C13.8028 41.3584 17.6943 42.3146 21.3035 42.2263C26.3892 42.1021 30.8918 39.9248 32.8378 37.9566Z" fill="#FFE800"></path><path d="M34.1035 47.5585C33.6652 44.7689 33.2786 41.9594 32.9684 39.1838C30.659 41.1334 26.2355 43.0989 21.3272 43.2184C17.8468 43.3034 14.1147 42.4694 10.7041 40.0596C11.5084 43.2071 12.6303 46.1886 13.9746 48.8055C17.425 51.0991 20.9433 51.8142 24.1061 51.6376C28.527 51.3893 32.2418 49.4085 34.1035 47.5585Z" fill="#ED1C24"></path><path d="M35.9475 57.8356C35.3583 54.884 34.7958 51.8262 34.2923 48.7371C32.1729 50.5718 28.4727 52.3879 24.1608 52.6297C21.2602 52.7923 18.0768 52.2472 14.9053 50.5247C16.8148 53.9338 18.8758 57.1085 21.2576 60.5229C24.014 61.861 26.7504 62.0608 29.1448 61.6153C32.1868 61.0502 34.6709 59.4539 35.9475 57.8356Z" fill="#BDE3F4"></path><path d="M50.8485 86.3562L38.0967 86.1178L38.2262 88.5853L50.6731 88.9731L50.8485 86.3562Z" fill="#ED1C24"></path><path d="M43.6659 85.2293L48.7031 85.3236C48.7057 85.2712 48.717 85.2187 48.7383 85.1676C48.7536 85.1284 52.4538 76.0844 56.7863 60.4717C53.4109 62.7753 50.0501 63.6305 46.9171 63.4798C43.286 63.3052 39.9756 61.7759 37.3096 59.5859C40.2347 73.6773 43.63 84.9392 43.6519 85.0115C43.6732 85.0839 43.6772 85.1583 43.6659 85.2293Z" fill="white"></path><path d="M38.9817 85.1418L42.6726 85.2108C42.3651 84.1829 39.0275 72.915 36.1954 59.0594C34.6956 60.6166 32.2388 62.0509 29.3237 62.5921C27.179 62.9905 24.782 62.9095 22.3291 62.0442C23.9896 64.3823 25.8035 66.8585 27.8233 69.6142C30.9536 73.8878 34.5794 78.8362 38.9339 85.0555C38.9518 85.0834 38.9684 85.1119 38.9817 85.1418Z" fill="white"></path><path d="M85.0574 41.0119C84.1727 44.1939 82.9094 47.2411 81.3213 49.963C82.2166 50.4763 83.2076 50.4862 84.2245 50.2014C85.3297 49.8919 86.4728 49.2412 87.566 48.4975C87.6803 48.2684 87.7945 48.0386 87.9074 47.8069C89.1827 45.1999 90.2713 42.5644 91.0882 39.9919C90.4107 40.6799 89.6848 41.2211 88.8831 41.5165C87.7387 41.9389 86.4794 41.8618 85.0574 41.0119Z" fill="#ED1C24"></path><path d="M86.2804 26.214C86.837 30.6756 86.4656 35.4553 85.3232 40.0059C86.558 40.8206 87.6101 40.9255 88.5406 40.5816C89.5243 40.2184 90.4149 39.3558 91.2558 38.288C91.3534 38.1639 91.4982 38.0988 91.645 38.0981C91.6815 37.962 91.7161 37.8259 91.7513 37.6897C92.7854 33.6631 93.0671 29.8695 92.2561 26.6855C91.4597 23.5572 89.5927 21.0107 86.3222 19.4124C85.6773 19.097 84.9772 18.8181 84.2207 18.5777C85.2675 20.9297 85.943 23.5147 86.2804 26.214Z" fill="#FFE800"></path><path d="M84.2639 40.1486C85.4534 35.6039 85.8506 30.805 85.2927 26.3335C84.9181 23.3334 84.1124 20.4834 82.8239 17.9634C81.5447 15.456 79.7872 13.274 77.5051 11.5947C73.7052 8.79782 68.4296 7.38012 61.4463 8.14774C64.827 13.7827 66.3938 22.263 64.2226 33.2978C63.8673 35.1066 63.5052 36.8749 63.1393 38.606C65.5862 40.108 69.2897 41.4022 73.5664 41.6911C76.8993 41.9162 80.5743 41.5284 84.2639 40.1486Z" fill="#FFE800"></path><path d="M80.1447 49.9942C81.7414 47.3746 83.0246 44.4204 83.9378 41.3214C80.33 42.5591 76.756 42.9031 73.5001 42.6833C69.2241 42.3938 65.4847 41.1288 62.9196 39.6307C62.2188 42.9024 61.5028 46.03 60.7842 49.0022C62.7688 50.6509 65.8553 51.6078 69.3124 51.8044C72.806 52.0029 76.6636 51.4219 80.1447 49.9942Z" fill="#ED1C24"></path><path d="M79.4906 52.7539C77.7186 55.5382 76.0349 58.1379 74.1592 60.8033C74.9761 61.284 76.0687 61.2913 77.1726 61.0364C78.8782 60.6433 80.5699 59.6419 81.3915 58.7541C81.45 58.6917 81.5197 58.6479 81.5954 58.622C83.3934 56.021 85.0944 53.2287 86.6831 50.218C85.9605 50.6211 85.2252 50.9531 84.4933 51.1583C83.2194 51.5149 81.9634 51.491 80.8051 50.8143C80.3873 51.4843 79.9489 52.1324 79.4906 52.7539Z" fill="#BDE3F4"></path><path d="M73.054 60.6499C75.0426 57.845 76.8067 55.1238 78.671 52.1955L78.689 52.1689L78.6877 52.1682C78.873 51.9166 79.055 51.6596 79.2336 51.3993C75.9658 52.5295 72.4649 52.979 69.2575 52.7971C65.8057 52.6005 62.6807 51.6689 60.528 50.0613C59.7662 53.1742 59.005 56.1106 58.2578 58.8603C59.6367 59.938 61.4791 61.1041 63.8736 61.6459C66.3091 62.197 69.3319 62.1107 73.054 60.6499Z" fill="#BDE3F4"></path><path d="M69.4132 67.1234C65.812 71.6248 61.2523 76.7279 54.7061 83.3509C60.6632 79.6582 66.3958 75.4662 71.6648 70.3452C74.5295 67.5603 77.2587 64.5005 79.8131 61.0947C79.0606 61.4864 78.2264 61.8131 77.3935 62.0057C76.0312 62.3205 74.6537 62.2839 73.5823 61.6159C72.3157 63.3882 70.9535 65.2003 69.4132 67.1234Z" fill="white"></path><path d="M51.2881 85.3716C59.3023 77.4106 64.5885 71.5671 68.6388 66.5052C69.8702 64.9667 70.988 63.4992 72.0348 62.0649C68.7178 63.1287 65.9495 63.1333 63.6561 62.6147C61.265 62.0735 59.4026 60.9666 57.9752 59.8955C53.8878 74.7704 50.3071 83.9227 49.7393 85.3424L51.2881 85.3716Z" fill="white"></path></svg>