<svg xmlns="http://www.w3.org/2000/svg" width="114" height="116" viewBox="0 0 114 116" fill="none"><path d="M46.7007 23.564C46.4907 18.5828 46.7247 13.6537 47.5061 8.75019C47.872 6.45278 49.174 4.6305 50.5436 2.92038C52.6797 0.252773 55.7072 -0.236084 58.9136 0.188075C60.1759 0.35519 62.0901 2.86917 62.1081 4.14939C62.1123 4.4474 62.1068 4.74466 61.8153 4.91202C61.4643 5.11361 61.1451 4.96623 60.8976 4.71893C60.2506 4.07295 59.6146 3.41498 58.9961 2.74177C57.9836 1.63991 56.9632 1.70435 55.8121 2.56741C54.1569 3.80816 53.206 5.49181 52.5036 7.37729C51.4619 10.1738 51.4781 13.1352 51.1072 16.0356C50.6238 19.8173 50.4567 23.6195 50.4312 27.4287C50.4269 28.0839 50.2706 28.882 51.2605 28.9834C52.7209 29.1333 53.248 29.9646 53.1358 31.3478C53.1133 31.6243 53.1943 31.909 53.232 32.2258C53.6719 32.0919 53.5575 31.7572 53.5779 31.5201C53.6614 30.5566 54.1377 30.5751 54.6918 31.1157C55.4949 31.8991 56.0219 31.5648 56.5328 30.8002C57.2824 29.6778 58.1043 28.6002 58.802 27.4469C62.6129 21.146 68.5539 17.4942 75.0924 14.8253C79.5363 13.0115 84.283 13.6025 88.9402 14.4124C91.6453 14.8828 94.0554 15.9894 96.3088 17.4872C97.1641 18.0557 97.7776 18.9088 98.223 19.7995C100.497 24.3499 101.861 29.118 101.501 34.2766C101.364 36.2406 100.679 38.0436 99.9164 39.8104C98.198 43.7927 96.4497 47.7668 93.6619 51.1651C93.4189 51.4613 93.2408 51.8105 93.0312 52.1345C92.6235 52.765 92.7132 53.1402 93.4943 53.4132C97.0987 54.673 100.318 56.6976 103.6 58.5941C103.93 58.7849 104.243 59.0305 104.51 59.3033C111.084 66.0184 114.483 73.9695 113.827 83.4636C113.713 85.116 112.948 86.6143 112.296 88.1048C111.331 90.3108 110.3 92.4956 109.162 94.6173C106.624 99.3513 102.086 100.869 97.2353 101.415C89.6264 102.273 82.0623 101.753 74.5246 100.247C71.3879 99.6201 68.3473 98.8384 65.3409 97.7865C63.5419 97.157 62.0933 96.1014 60.906 94.6975C60.2805 93.9579 59.9221 93.9811 59.3473 94.666C58.3843 95.8139 57.2944 96.8398 56.0792 97.7218C54.8012 98.6496 53.4168 99.3113 51.7847 99.1297C50.4362 98.9798 49.5129 99.1629 49.0361 100.757C48.19 103.584 45.6021 105.021 43.6137 106.94C38.9352 111.456 32.9398 113.415 27.0136 115.4C24.2233 116.335 21.1568 116.031 18.2679 115.477C13.486 114.56 9.04651 112.693 5.15988 109.72C2.80977 107.923 1.4474 105.323 0.948307 102.51C-1.42578 89.13 1.94476 77.7921 13.1727 69.3876C14.9006 68.0942 14.8162 68.1406 13.2791 66.7315C11.0849 64.7199 8.4315 63.2836 6.42986 61.0256C3.56941 57.7987 1.72143 54.2346 2.03892 49.7812C2.11761 48.6778 2.06841 47.564 2.05142 46.4553C2.01445 44.0271 2.63342 41.8341 4.04603 39.8102C6.42037 36.4084 9.30882 33.514 12.7128 31.2076C15.7851 29.1263 19.341 28.3939 23.0373 28.5115C27.436 28.6514 31.766 29.2599 35.9449 30.7083C37.6293 31.292 38.8403 32.585 40.1987 33.6496C41.5131 34.6798 41.7734 34.5984 42.5503 33.1441C43.54 31.2913 43.3447 29.3793 42.8348 27.5118C41.4142 22.3075 40.0303 17.0905 37.954 12.0872C36.7639 9.22006 35.1246 6.71982 32.6361 4.83508C30.3856 3.13071 28.9173 3.55262 27.8466 6.15103C27.3523 7.35081 26.837 8.5421 26.3444 9.74264C26.2125 10.0636 26.1043 10.3991 25.6956 10.4253C25.2627 10.4531 24.9293 10.2168 24.7704 9.8468C23.8938 7.8052 24.0642 5.75484 25.0539 3.84213C25.8615 2.28089 27.2496 1.61368 29.0889 1.54473C34.7855 1.3309 38.572 4.16762 41.2171 8.88558C43.5939 13.1252 45.032 17.7222 46.1791 22.4197C46.2588 22.7464 46.3503 23.0712 46.4567 23.3899C46.4776 23.4554 46.5913 23.4898 46.7007 23.564ZM88.1144 99.3248C92.1389 99.7595 96.0268 98.7902 99.8182 97.501C101.773 96.8363 103.662 95.7412 104.77 93.9069C106.465 91.1032 107.851 88.1243 108.934 85.0258C109.216 84.222 109.357 83.3247 109.35 82.4721C109.324 79.4306 109.207 76.3433 108.206 73.4729C105.982 67.0912 103.16 61.0621 96.685 57.7518C96.2159 57.5119 95.7882 57.1877 95.3511 56.8887C93.5086 55.6285 91.6565 54.4582 89.2665 54.5531C88.1798 54.5963 87.7335 53.8664 88.2663 52.9119C89.0594 51.4913 89.8442 50.0292 91.2281 49.0525C91.4215 48.9161 91.6957 48.8654 91.7205 48.5861C91.8846 46.7329 93.1986 45.3827 93.843 43.733C95.0493 40.6455 96.6605 37.7031 97.022 34.3328C97.5233 29.6614 96.0897 25.3836 94.2797 21.1999C93.8823 20.2812 93.2982 19.4071 92.4324 18.8291C88.2605 16.0446 83.6193 14.8818 78.8471 16.3843C72.7063 18.3175 67.7283 22.2146 63.5309 27.0877C62.1498 28.6911 60.7294 30.2601 59.3348 31.8518C57.9254 33.4603 56.7756 35.0473 58.1915 37.3414C58.9898 38.6349 59.3633 40.1739 59.8246 41.6515C61.8228 48.0511 61.907 54.6645 62.0196 61.2542C62.1795 70.5942 61.4541 79.9152 61.1014 89.2439C61.0739 89.9731 61.0809 90.6231 61.8808 90.9046C62.8178 91.2343 63.3668 91.946 63.8024 92.7698C64.7829 94.6238 66.3052 95.679 68.3093 96.3257C71.2524 97.2755 74.1766 98.141 77.2906 98.3703C80.8852 98.6349 84.4069 99.7013 88.1144 99.3248ZM4.74121 95.2408C4.60332 97.1803 4.9426 99.8399 5.78267 102.437C6.57304 104.88 7.76605 107.092 9.96004 108.517C13.1622 110.598 16.5954 112.254 20.242 113.412C21.9214 113.945 23.665 114.062 25.3532 113.387C28.0802 112.296 30.7953 111.174 33.5068 110.044C34.9939 109.425 36.1922 108.394 37.4257 107.373C40.8709 104.521 43.57 101.015 46.346 97.566C46.9028 96.8743 46.7372 96.269 46.4699 95.5568C45.6243 93.3054 44.3701 91.2053 43.8995 88.816C42.3869 81.1337 40.3086 73.6075 40.0508 65.6402C39.7556 56.5162 39.7133 47.4548 40.8109 38.3958C40.8894 37.7491 40.8405 37.2727 40.1383 37.0194C38.6684 36.4894 37.4679 35.4969 36.1697 34.6683C31.7058 31.8201 26.7033 30.671 21.5479 31.097C15.1476 31.6258 11.1908 36.1696 7.53499 40.8723C5.86208 43.0244 6.0427 45.6328 5.86933 48.1915C5.4724 54.0447 8.0456 58.4202 12.3661 61.9794C14.5953 63.8161 16.7796 65.7181 19.2024 67.3111C19.6882 67.6306 20.215 67.987 20.0564 68.6822C19.9075 69.3344 19.316 69.3864 18.7839 69.4061C16.8308 69.4786 15.3854 70.53 13.9243 71.6985C10.2503 74.6377 7.53522 78.1816 6.21378 82.7659C5.10942 86.5975 4.72173 90.4947 4.74121 95.2408ZM56.4341 59.3502C56.6472 53.6033 56.3959 48.4268 55.2851 43.3001C54.4415 39.406 52.9849 35.8624 50.1619 32.9697C48.2562 31.0168 46.2136 31.3885 45.191 33.9247C44.5595 35.4907 44.0986 37.1219 43.834 38.7895C42.662 46.1788 43.0252 53.6031 43.6777 60.9896C44.3843 68.9922 45.4392 76.9618 47.016 84.8569C47.8108 88.8372 48.4096 92.856 50.0245 96.6135C50.6293 98.0206 51.8421 98.4635 53.1008 97.6469C55.699 95.9613 57.6891 93.8437 57.6684 90.432C57.6492 87.2463 57.1853 84.0873 57.1141 80.9151C56.9485 73.5483 57.0973 66.1742 56.4341 59.3502Z" fill="#FC4525"></path><path d="M93.8177 78.3424C93.2449 78.2922 92.6649 78.2837 92.1006 78.1845C89.1705 77.6699 87.4831 75.6656 87.7908 72.7077C88.3104 67.7169 91.322 64.8488 96.3417 65.2392C97.9242 65.3623 99.0968 66.07 99.6396 67.6068C100.652 70.4717 101.084 73.2977 98.9384 75.9061C97.6099 77.5216 96.0077 78.5305 93.8177 78.3424ZM97.8073 71.2206C97.844 70.4055 97.3846 69.1031 96.7339 67.8541C96.3764 67.1679 95.8491 66.6246 95.028 66.8199C93.5512 67.1714 92.1735 67.7549 91.5333 69.2957C90.8569 70.9229 90.6116 72.6385 90.8781 74.3728C91.2378 76.7147 93.6484 77.7824 95.7025 76.5876C97.5545 75.5102 97.7528 73.7139 97.8073 71.2206Z" fill="#FC4525"></path><path d="M81.767 35.4817C78.7389 35.4832 76.1942 33.8008 75.1049 31.2059C74.4434 29.6304 75.0107 27.7187 76.4795 26.5731C79.594 24.1443 84.214 24.9132 86.6168 28.0732C87.6428 29.4223 86.8369 31.9431 85.8854 33.3782C84.9175 34.838 83.4704 35.7265 81.767 35.4817ZM84.0195 31.4699C84.0509 29.2233 82.2154 27.2141 80.595 27.0582C80.1813 27.0183 79.8525 27.1577 79.5311 27.4032C77.2844 29.1193 77.1919 30.9686 79.2742 32.9023C80.1071 33.6757 81.0294 34.4525 82.2212 33.8955C83.4494 33.3212 83.9925 32.1871 84.0195 31.4699Z" fill="#FC4525"></path><path d="M70.8913 83.5227C70.9852 82.8582 71.002 82.1715 71.1858 81.5328C72.4645 77.0891 77.0406 76.1893 80.6384 79.6568C82.9341 81.8693 82.9703 83.4412 80.6167 85.5678C78.8414 87.172 76.7486 88.1322 74.2838 87.7206C71.7723 87.3011 70.8253 86.0472 70.8913 83.5227ZM75.001 86.7871C76.7274 86.7838 77.9066 86.0322 79.0145 85.1629C80.2345 84.2056 80.5155 82.8267 79.585 81.587C78.8056 80.5491 77.731 79.7667 76.4071 79.4702C75.8715 79.3503 75.3322 79.445 74.8996 79.8012C74.1229 80.4404 73.3478 81.0659 72.6821 81.8488C71.7813 82.9087 72.0886 83.8469 72.6019 84.9061C73.1517 86.0402 73.8839 86.8248 75.001 86.7871Z" fill="#FC4525"></path><path d="M69.1104 61.3403C68.9917 59.2038 70.236 57.1747 71.9636 56.6871C73.8669 56.15 75.6781 56.9259 76.7355 58.7309C76.7597 58.7724 76.7884 58.8111 76.8112 58.8533C77.7002 60.5052 76.5881 63.1034 74.4196 64.4413C72.8189 65.429 70.4001 64.9686 69.3634 63.4906C68.8783 62.7994 68.8109 62.0792 69.1389 61.3121C69.7119 62.711 71.0344 63.3087 72.1957 64.0132C72.766 64.3591 73.5066 64.0112 74.0659 63.5618C75.2052 62.6463 75.489 61.4178 75.2702 60.0578C75.1038 59.0249 74.4304 58.3003 73.4527 58.015C72.5409 57.749 72.066 58.5421 71.6024 59.1273C71.2512 59.571 70.9637 60.1038 70.7931 60.6429C70.4893 61.6026 70.0064 61.9136 69.1104 61.3403Z" fill="#FC4525"></path><path d="M29.5426 89.9025C25.5396 90.3682 23.8692 87.2155 24.0238 84.0687C24.2082 80.3155 26.6507 78.1488 29.3558 76.5013C32.495 74.5894 37.1387 77.6012 37.4697 81.3891C37.9239 86.5827 34.8324 89.903 29.5426 89.9025ZM26.7441 84.1417C26.7441 84.4787 26.7329 84.8161 26.7459 85.1524C26.8271 87.2454 27.8222 88.5282 29.4562 88.656C31.54 88.8189 34.1194 87.1413 34.3527 85.3967C34.5536 83.8939 34.3342 82.4011 33.7884 80.9955C33.2261 79.5471 31.3289 78.4095 30.2985 78.7885C27.5587 79.7959 26.5673 81.2687 26.7441 84.1417Z" fill="#FC4525"></path><path d="M12.3793 99.08C12.1945 94.6423 15.4533 92.6806 19.7741 93.691C21.8185 94.1689 23.2375 96.9574 22.308 98.7197C21.1907 100.838 19.4786 102.384 17.0957 102.953C13.9393 103.707 12.3079 102.326 12.3793 99.08ZM14.6907 98.4587C14.969 99.4094 14.282 101.023 15.6032 101.659C16.9481 102.306 18.0107 101.077 19.0009 100.295C20.2314 99.3228 20.5205 97.9256 19.888 96.7121C19.2215 95.4334 17.7512 94.8069 16.3468 95.2031C14.9502 95.597 14.602 96.2342 14.6907 98.4587Z" fill="#FC4525"></path><path d="M15.9772 42.317C19.398 42.4201 21.7418 44.5916 21.6546 47.577C21.5715 50.4264 18.7677 52.7391 15.5101 52.6449C13.0708 52.5744 11.1786 50.617 11.2905 48.2794C11.4336 45.2813 13.8152 42.2518 15.9772 42.317ZM19.3383 47.4171C19.3198 47.1643 19.3218 46.8738 19.2741 46.5915C19.0392 45.2061 17.531 43.855 16.017 43.7498C14.5764 43.6499 14.2916 44.8866 13.7835 45.8284C13.5117 46.332 13.3461 46.899 13.0343 47.3729C12.5482 48.1113 11.3622 48.8257 13.2114 49.3753C13.4412 49.4435 13.5372 49.9351 13.7116 50.2201C14.7375 51.8967 15.9285 52.13 17.568 51.0299C18.8547 50.1671 19.2933 48.9151 19.3383 47.4171Z" fill="#FC4525"></path><path d="M25.8235 57.2766C25.8645 53.96 27.6371 52.2121 30.9437 52.2281C32.9416 52.2376 34.597 53.7142 34.5278 55.4248C34.4079 58.3867 32.144 60.6723 29.3877 60.6144C27.2704 60.5697 25.7998 59.1928 25.8235 57.2766ZM27.8542 56.9304C27.9244 57.9348 27.6746 59.0589 28.9675 59.4925C30.1798 59.8992 31.0131 59.2078 31.7216 58.3874C32.5584 57.4185 32.771 56.2262 32.5539 54.9987C32.3253 53.7052 31.3458 53.0974 29.882 53.1267C28.5618 53.1529 28.1657 53.9525 28.0732 55.0863C28.0225 55.7081 27.9276 56.3261 27.8542 56.9304Z" fill="#FC4525"></path></svg>