<svg xmlns="http://www.w3.org/2000/svg" width="101" height="77" viewBox="0 0 101 77" fill="none"><path d="M74.5281 44.488C74.3871 44.9818 74.5281 45.5462 75.0216 45.8283C76.5727 46.7454 77.8418 48.0152 78.9699 49.4261C79.6749 50.3432 80.1685 51.4719 80.38 52.6006C81.085 56.9038 80.5915 61.1365 79.0404 65.1575C78.9699 65.2986 78.8994 65.4397 78.8289 65.6513C77.9123 67.7676 76.3612 68.8963 74.0345 68.7553C72.3424 68.6142 70.5798 68.4025 68.8876 68.1909C68.1826 68.1204 67.407 67.9087 66.702 67.7676C66.1379 67.6265 65.5034 67.9087 65.2919 68.4731C65.1509 68.6847 65.0804 68.8963 64.9394 69.108C63.3177 72.0003 60.9911 74.1872 58.1004 75.5981C55.1391 77.0089 52.1074 77.2206 49.0757 75.9508C48.1591 75.5981 47.3131 74.9632 46.6785 74.2577C44.2108 71.2949 44.2813 67.1327 44.4223 65.4397C44.4223 65.0164 44.2108 64.6637 43.7878 64.5931L39.8395 63.8172C39.346 63.7466 38.8524 63.9582 38.6409 64.4521C38.4999 64.8753 38.2884 65.228 38.1474 65.5808C36.4553 68.8258 34.1286 71.4359 30.5328 72.5647C27.4306 73.5523 24.2579 73.6934 21.1556 72.4941C19.957 72.0003 18.8995 71.2949 18.0534 70.3778C15.6562 67.7676 14.5986 64.8048 15.5152 61.2776C15.5857 60.9248 15.3742 60.6427 15.0217 60.6427C12.131 60.5721 9.31076 60.3605 6.42004 59.7961C5.00994 59.5139 3.74085 59.0201 2.47175 58.3147C0.779629 57.3271 -0.0664336 55.8456 0.00407163 53.8704C0.286092 47.1687 3.17681 41.8778 8.5352 37.9274C10.5799 36.4459 12.836 35.6699 15.3037 35.4583C16.5023 35.3878 17.7714 35.3172 18.97 35.1761C19.3225 35.1761 19.6045 35.1056 19.816 34.6823C21.7902 29.3915 24.7514 24.5945 27.8536 19.868C30.1803 16.2702 33.0005 12.6019 36.2437 9.35688C38.9229 6.60565 41.9547 4.27769 45.3389 2.51408C47.3836 1.45591 49.4987 0.750469 51.6844 0.186114C52.9535 -0.0960632 54.2931 -0.0255188 55.5622 0.186114C60.8501 1.03265 65.5034 3.29007 69.1697 7.3111C72.4834 10.9794 74.8101 15.2826 75.9382 20.0796C76.9252 24.3123 77.1368 28.6155 76.7137 32.9187C76.4317 36.1637 76.0087 39.3382 75.2331 42.5127C75.0216 43.1476 74.7396 43.8531 74.5281 44.488ZM40.2625 61.4186C41.8137 61.6303 43.3648 61.9125 44.9159 62.1241C45.3389 62.1946 45.7619 61.983 45.9735 61.6303C47.031 60.0078 48.3001 58.5969 49.6397 57.3271C51.4024 55.634 53.5175 54.5053 55.8442 53.7999C57.7478 53.2355 59.581 53.306 61.2731 54.3642C63.6703 55.8456 65.3624 57.8914 65.8559 60.7132C65.9969 61.4892 66.0674 62.3357 66.1379 63.1823C66.1379 63.535 66.1379 63.8877 66.2085 64.1699C66.2085 64.5931 66.561 65.0164 66.984 65.087C68.1826 65.2986 70.5093 65.7218 71.7784 65.9335C72.6949 66.0746 73.682 66.0746 74.5986 66.0746C74.9511 66.0746 75.4446 66.004 75.6562 65.7218C76.2907 65.0164 76.7137 64.1699 76.9958 63.2528C77.2073 62.6179 76.7842 61.983 76.1497 61.9125C74.9511 61.7008 73.7525 61.4892 72.6244 61.1365C70.8618 60.5016 69.8042 58.9496 69.8747 57.3976C69.9452 56.3394 70.3683 55.5635 71.1438 54.858C72.6949 53.3766 74.5986 52.5301 76.7137 52.389C77.1368 52.3184 77.4188 51.8246 77.1368 51.4719C76.9252 51.1192 76.7137 50.837 76.5022 50.5548C75.4446 49.2145 74.105 48.2268 72.7654 47.2392C71.7784 46.5338 71.7079 46.1811 71.9899 44.9818C72.4834 43.0066 72.977 41.0313 73.3295 39.0561C73.6115 37.6452 73.682 36.1637 73.8935 34.6823C74.3166 31.5784 74.3871 28.4039 74.105 25.2999C73.6115 20.1502 72.0604 15.4237 68.9582 11.2616C67.3365 9.00416 65.3624 7.17001 62.9652 5.75912C60.9911 4.55987 58.9464 3.71333 56.7608 3.07843C54.0816 2.37299 51.4729 2.58462 48.9347 3.64279C45.903 4.91259 43.1533 6.6762 40.6856 8.86307C38.1474 11.05 35.8912 13.519 33.8466 16.1997C29.5457 21.5611 25.809 27.4868 22.9183 33.8358C22.4952 34.8234 21.9312 35.811 21.5082 36.7281C21.1556 37.5041 20.5211 37.7157 19.7455 37.7863C18.3354 37.9274 16.8548 38.0685 15.4447 38.2095C12.9065 38.4212 10.7914 39.4793 8.88773 41.1019C8.67621 41.2429 8.74672 41.5957 9.02874 41.6662C9.9453 41.9484 10.7914 42.2306 11.7079 42.5833C12.977 43.0771 14.1756 43.8531 15.0217 44.9818C16.3613 46.6749 16.1498 48.7912 14.4576 50.1315C13.6821 50.6959 12.7655 51.1192 11.9194 51.4013C10.8619 51.7541 9.66328 51.9657 8.5352 52.0362C6.98409 52.1773 5.43297 52.1773 3.81135 52.2479C3.31782 52.2479 2.82428 52.6711 2.82428 53.2355C2.82428 53.5177 2.75377 53.8704 2.75377 54.2231C2.68327 55.0696 3.1063 55.634 3.81135 56.0573C4.93944 56.7627 6.20853 57.186 7.54813 57.3976C10.3683 57.8209 13.118 58.1031 15.9382 58.1031C16.7843 58.1031 17.2778 57.8209 17.7714 57.1154C19.6045 54.2231 22.0722 52.1773 25.2449 50.9075C27.8536 49.8494 30.4623 49.7788 33.0005 50.9781C33.9876 51.4719 34.8336 52.2479 35.6797 52.8828C37.7243 54.3642 38.8524 56.3394 39.346 58.8085C39.487 59.3729 39.487 59.9372 39.5575 60.5016C39.4165 60.9248 39.769 61.3481 40.2625 61.4186ZM30.6033 52.8122C28.7702 52.389 27.0781 52.7417 25.527 53.5177C23.9053 54.2937 19.675 57.8914 18.8995 60.9954C17.5599 66.1451 19.675 70.0251 23.1298 70.7305C26.8666 71.436 31.9429 70.5894 34.6926 66.0746C35.0452 65.5808 35.3272 65.0164 35.6092 64.4521C36.5258 62.6179 37.0898 60.7132 36.5258 58.6674C36.1027 57.186 35.3272 55.8456 34.1991 54.7875C33.1415 53.9409 32.0839 52.8828 30.6033 52.8122ZM63.1767 66.3568C63.8818 62.9001 63.3882 60.5016 62.2602 58.1736C62.1897 58.0325 62.1192 57.8914 61.9781 57.8209C60.3565 56.41 58.5939 55.5635 56.4082 56.2689C54.5046 56.9038 52.8125 57.8209 51.3319 59.1612C49.5692 60.7132 48.2296 62.5474 47.1721 64.6637C45.5504 67.8382 46.608 71.0832 48.5822 72.9879C49.0052 73.4112 49.6397 73.7639 50.2038 73.9755C51.9664 74.6104 53.7995 74.6104 55.5622 73.905C59.581 72.353 62.2602 69.6723 63.1767 66.3568ZM3.45883 49.0028C3.31782 49.4966 3.67034 49.9905 4.23438 49.9199C5.08045 49.8494 5.856 49.7788 6.56105 49.7083C7.90065 49.5672 9.31076 49.3556 10.6504 49.0734C11.2144 49.0028 11.7079 48.7207 12.2015 48.509C13.4001 47.8741 13.4706 47.1687 12.4835 46.2516C12.131 45.8989 11.7079 45.6167 11.2849 45.4051C10.0863 44.6996 8.81722 44.2764 7.47762 43.9236C6.84308 43.6415 6.20853 43.9236 5.856 44.4174C4.86893 45.8283 3.95236 47.3098 3.45883 49.0028ZM78.0533 55.4929C78.0533 55.0696 77.6303 54.7169 77.2073 54.7169C75.7972 54.858 74.5986 55.2813 73.4705 56.0573C72.977 56.41 72.3424 56.8333 72.4834 57.6092C72.6244 58.3147 73.3295 58.5969 73.8935 58.738C74.8806 59.0201 75.8677 59.2318 76.9252 59.2318C77.4188 59.2318 77.8418 58.879 77.9123 58.3852C78.0533 57.4682 78.0533 56.4805 78.0533 55.4929Z" fill="#1972F4"></path><path d="M94.1989 50.6959C94.1989 51.0486 94.5515 51.3308 94.904 51.2603C96.4551 51.0486 97.7947 51.2603 98.6408 52.7417C99.4163 54.2231 98.7818 55.4929 97.7947 56.6216C97.5127 56.9038 97.5832 57.3976 97.9357 57.6092C98.0062 57.6798 98.0767 57.6798 98.1472 57.7503C99.6983 58.8085 100.615 60.2194 100.826 62.0535C101.038 63.6055 100.262 65.087 98.8523 65.7219C97.4422 66.3568 96.0321 66.2862 94.622 65.9335C94.1989 65.8629 93.8464 66.2157 93.8464 66.6389C94.0579 68.1204 93.3529 69.3196 91.9428 69.8134C90.3917 70.3072 88.9111 70.1661 87.501 69.3902C85.1743 68.1204 83.7642 66.2157 82.9181 63.8172C81.8605 60.8543 81.649 57.8209 82.9181 54.9286C84.1167 52.2479 85.6678 49.7788 88.5585 48.509C89.5456 48.0858 90.6032 47.733 91.7313 47.9447C93.2119 48.2268 94.0579 49.1439 94.1989 50.6959ZM95.2565 63.7466C96.0321 63.8877 96.6666 63.7466 97.3012 63.6761C98.1472 63.535 98.4998 63.0412 98.2883 62.1241C98.2177 61.8419 98.1472 61.5597 98.0062 61.2776C97.6537 60.431 96.9487 59.8667 96.3141 59.3023C95.7501 58.879 95.186 58.4558 94.6925 57.962C94.1989 57.4682 94.1989 57.2565 94.6925 56.6922C95.186 56.0573 95.7501 55.4224 96.2436 54.7875C96.3846 54.5758 96.4551 54.1526 96.3846 54.0115C96.2436 53.7999 95.8911 53.7293 95.6091 53.7293C95.2565 53.7293 94.904 53.8704 94.622 54.0115C94.1989 54.2231 93.7054 54.4347 93.2824 54.7169C92.7183 54.9991 92.1543 55.0696 91.6608 54.7169C91.2377 54.3642 91.0967 53.7293 91.3082 53.0239C91.4492 52.5301 91.6608 52.0362 91.7313 51.4719C91.8723 50.5548 91.6608 50.3432 90.7442 50.4843C89.1226 50.7664 87.783 51.5424 86.7254 52.8122C85.5268 54.2231 84.8218 55.8456 84.7513 57.7503C84.6807 59.3729 84.7513 60.9954 85.1743 62.5474C85.6678 64.3815 86.5844 65.9335 88.206 67.0622C88.9816 67.6266 89.8276 67.9087 90.7442 67.7676C91.5197 67.6266 91.7313 67.4149 91.4492 66.7095C91.0967 65.8629 90.6737 65.0164 90.2507 64.1699C90.0391 63.7466 89.7571 63.3233 89.6161 62.9001C89.4046 62.4768 89.4046 62.0535 89.8276 61.7008C90.1802 61.3481 90.6032 61.3481 90.9557 61.5597C91.5903 61.8419 92.1543 62.2652 92.7183 62.5474C93.5644 62.9001 94.34 63.535 95.2565 63.7466Z" fill="#1972F4"></path><path d="M36.3143 40.1848C33.4236 39.5499 31.0969 38.3506 28.9818 36.8692C27.3601 35.811 27.0076 34.118 27.4306 32.3544C27.7832 30.8729 28.3472 29.3915 28.9818 27.9806C31.5904 21.9138 35.3272 16.6935 40.0511 12.1787C42.3777 9.92124 44.9864 8.15763 48.0182 6.95838C50.2038 6.11185 52.3895 5.61804 54.7161 6.18239C55.6327 6.39402 56.6198 6.74675 57.3248 7.38165C59.0875 8.79253 57.6069 13.6601 56.9723 15.5648C54.7161 22.3371 51.7549 28.7566 48.4412 35.035C47.9477 36.0227 47.3131 36.9397 46.6081 37.8568C44.9159 40.0437 42.7303 40.9608 39.9806 40.6081C38.641 40.3259 37.3014 40.2553 36.3143 40.1848ZM34.1991 28.3333C34.5517 28.2628 34.8337 27.9101 34.7632 27.5573C34.7632 26.9224 34.6927 26.3581 34.6927 25.7937C34.6927 25.1588 34.8337 24.5239 35.4682 24.2418C36.3848 23.889 37.3014 23.5363 38.2884 23.3952C39.346 23.1836 40.3331 23.8185 40.7561 24.8061C40.8971 25.2294 41.1086 25.6526 41.1792 26.0759C41.6022 28.4039 42.0252 30.7318 42.3777 33.0598C42.3777 33.1303 42.3777 33.2009 42.3777 33.2714C42.3777 34.4707 41.9547 35.1761 40.8266 35.5289C40.0511 35.7405 39.2755 35.9521 38.5 36.0227C36.8783 36.1638 35.9618 35.7405 35.3272 34.5412C35.1862 34.2591 34.8337 34.118 34.5517 34.118C33.9876 34.1885 33.1416 34.4001 32.5775 34.4707C32.1545 34.6118 31.661 34.6118 31.1674 34.6823C30.7444 34.7529 30.6739 35.3172 31.0264 35.5289C31.5904 35.8816 32.1545 36.1638 32.7185 36.4459C35.3272 37.9274 38.1474 38.4917 41.1086 38.0685C42.5893 37.8568 43.8583 37.2925 44.7044 35.9521C45.1979 35.1761 45.762 34.4001 46.185 33.5536C47.4541 31.0846 48.5822 28.6155 49.7808 26.1465C51.7549 22.0549 53.4471 17.8222 54.7867 13.4485C55.1392 12.3198 56.0557 9.63907 54.5751 8.72199C53.8701 8.29872 53.0945 8.22818 52.319 8.29872C51.0499 8.36927 49.7808 8.72199 48.5822 9.2158C45.903 10.3445 43.5763 11.967 41.4612 14.0128C37.5129 17.8928 34.1991 22.1254 31.802 27.1341C31.661 27.4868 31.4494 27.8395 31.3084 28.1922C31.1674 28.4744 31.4494 28.8271 31.7315 28.7566L34.1991 28.3333ZM39.9101 32.566C39.5575 30.5202 39.4165 28.4744 38.923 26.4992C38.782 26.0759 38.3589 25.7937 37.8654 25.8643H37.7949C37.4424 25.9348 37.1604 26.217 37.1604 26.5697V26.6403C37.2309 28.1922 37.2309 29.7442 37.3014 31.2962C37.3014 31.8605 37.3719 32.4249 37.5129 32.9187C37.5834 33.1303 37.8654 33.4125 38.0064 33.4125C38.4294 33.4125 38.782 33.4125 39.2755 33.342C39.6985 33.4125 39.9806 32.9893 39.9101 32.566ZM29.8983 32.566C31.3789 32.2838 32.93 31.9311 34.4812 31.6489C34.6927 31.5784 34.8337 31.3667 34.8337 31.1551C34.8337 30.8729 34.5517 30.7318 34.3402 30.8024C33.0006 31.1551 31.661 31.4373 30.3919 31.79C30.2508 31.8605 30.1098 32.0016 29.9688 32.2133C29.8278 32.2838 29.8278 32.4249 29.8983 32.566Z" fill="#1972F4"></path><path d="M69.6632 34.6118C69.3107 36.5165 68.6761 38.2801 67.7596 39.9731C66.3495 42.5833 64.1638 43.8531 61.2026 43.5709C59.6515 43.4298 58.1004 43.2887 56.6197 42.7244C54.0816 41.8073 52.6009 40.2553 52.883 37.2925C52.9535 36.4459 53.0945 35.6699 53.306 34.8939C53.6585 33.5536 54.0111 32.1427 54.4341 30.8024C55.8442 26.2875 57.4658 21.9138 59.44 17.6811C60.004 16.4819 60.568 15.3531 61.2026 14.2244C61.4846 13.7306 61.9076 13.3074 62.4012 12.9546C63.5998 12.1081 64.7983 12.1786 65.9264 13.1663C67.125 14.1539 67.9006 15.4942 68.3941 16.9051C69.3107 19.4447 69.8042 22.0549 69.8747 24.7355C70.0157 27.2751 69.9452 29.7442 69.9452 32.2838C69.9452 33.1303 69.8042 33.9063 69.6632 34.6118ZM61.1321 41.1018C63.1767 41.384 64.6573 40.608 65.5739 38.7739C66.4905 37.0103 67.125 35.1056 67.266 33.1303C67.407 31.0845 67.4775 29.0388 67.407 26.993C67.3365 23.889 66.984 20.7851 65.9969 17.8222C65.7149 16.9051 65.2214 16.0586 64.5163 15.3531C63.7408 14.5772 63.1767 14.6477 62.7537 15.7059C60.7795 20.2207 58.8759 24.7355 57.4658 29.3915C56.6902 31.8605 56.0557 34.3296 55.4212 36.7986C55.2801 37.2219 55.3507 37.6452 55.2801 38.139C55.2096 39.0561 55.6327 39.7615 56.4787 40.1142C57.5363 40.3964 60.6385 41.0313 61.1321 41.1018Z" fill="#1972F4"></path><path d="M29.3342 56.5511H29.4047C31.8019 56.9744 32.93 58.5263 32.2249 60.9249C31.5904 63.3234 30.1098 65.087 27.8536 66.1451C26.8665 66.5684 25.809 66.78 24.7514 66.4273C23.0593 65.863 22.0722 64.2404 22.3542 62.1946C22.7067 59.5845 24.2578 57.7504 26.5845 56.6216C27.2896 56.1278 27.5716 56.1984 29.3342 56.5511ZM24.8924 62.0536C24.8219 62.759 24.6809 63.3234 25.2449 63.7466C25.7385 64.0993 26.232 63.8877 26.7255 63.7466C26.8665 63.6761 26.937 63.6761 27.0075 63.6055C28.2061 62.8295 29.0522 61.7714 29.5457 60.431C29.6867 59.9372 29.7572 59.3729 29.3342 59.0201C28.8407 58.6674 28.2766 58.3853 27.6421 58.738C26.232 59.4434 25.3859 60.6427 24.8924 62.0536Z" fill="#1972F4"></path><path d="M50.6268 65.7219C51.1909 63.8172 52.319 62.0536 54.1521 60.8543C55.4212 60.0078 57.3953 60.1489 58.4529 61.0659C59.5105 61.983 59.9335 63.6055 59.299 65.087C58.5234 66.9211 57.2543 68.332 55.4917 69.2491C54.7162 69.6723 53.8701 69.8134 53.024 69.6723C51.4024 69.4607 50.4153 68.2615 50.4858 66.6389C50.5563 66.4273 50.5563 66.1451 50.6268 65.7219ZM53.165 66.0746C52.9535 66.7095 53.6586 67.3444 54.2931 67.0622C54.4341 66.9917 54.5046 66.9211 54.6456 66.8506C55.6327 66.2157 56.3378 65.2986 56.8313 64.2404C56.9018 64.0993 56.9723 63.8877 56.9723 63.7466C56.9723 63.3234 56.9018 62.8295 56.4788 62.6179C56.0557 62.4063 55.7737 62.6885 55.4212 62.9001C54.3636 63.7466 53.6586 64.7342 53.165 66.004C53.2355 66.004 53.165 66.004 53.165 66.0746Z" fill="#1972F4"></path></svg>