<svg xmlns="http://www.w3.org/2000/svg" width="95" height="98" viewBox="0 0 95 98" fill="none"><path d="M43.0648 0.0969271C55.2529 -0.617261 67.1248 2.59073 76.5991 10.5374C86.9699 19.2352 93.6003 31.3136 94.7144 44.8061C95.8267 58.2715 91.8737 71 83.084 81.284C75.2465 90.4544 64.472 96.2739 52.4029 97.2728C51.7097 97.3584 51.0158 97.4342 50.3201 97.4989C38.6577 98.5329 26.2996 93.6304 17.5235 86.1607C17.2129 85.8975 16.9055 85.6313 16.6017 85.3608C16.2979 85.0903 15.9972 84.8167 15.7002 84.5388C15.4025 84.2609 15.1092 83.9799 14.819 83.6952C14.5287 83.4099 14.2416 83.1215 13.9587 82.8294C13.6753 82.5379 13.3955 82.2422 13.1195 81.9433C12.844 81.6444 12.5716 81.3419 12.303 81.0368C12.0349 80.7312 11.77 80.4225 11.5087 80.1101C11.248 79.7977 10.9911 79.4828 10.7378 79.1642C10.4845 78.8456 10.2356 78.5246 9.99034 78.1998C9.74509 77.8751 9.50415 77.5479 9.26691 77.2176C9.02967 76.8867 8.79612 76.5533 8.5675 76.2175C8.33827 75.8816 8.11335 75.5427 7.89275 75.2007C7.67215 74.8587 7.45586 74.5143 7.24389 74.1673C7.03129 73.8204 6.82363 73.4704 6.62028 73.1185C6.41632 72.7667 6.21728 72.4117 6.02256 72.0543C5.82784 71.6976 5.63743 71.3383 5.45133 70.9766C5.26523 70.6149 5.08345 70.2507 4.9066 69.8847C4.72974 69.518 4.55721 69.1495 4.38898 68.7792C4.22076 68.4088 4.05746 68.0366 3.8991 67.662C3.74011 67.2873 3.58606 66.9108 3.43632 66.5331C3.28658 66.1547 3.14177 65.7745 3.00189 65.3925C2.86139 65.011 2.72582 64.6272 2.59519 64.242C2.46393 63.8569 2.33823 63.4699 2.21683 63.0817C2.09544 62.6935 1.97898 62.304 1.86744 61.9127C1.75591 61.5214 1.64869 61.1289 1.54702 60.7352C1.44534 60.3414 1.34798 59.9464 1.25555 59.5502C1.16311 59.154 1.07562 58.7571 0.993043 58.3584C0.911087 57.9604 0.833441 57.5611 0.760112 57.1611C0.687399 56.7606 0.619619 56.3594 0.557382 55.9577C0.494528 55.5559 0.436606 55.1535 0.383612 54.7499C0.330617 54.3463 0.282548 53.9427 0.239413 53.5384C0.196278 53.1336 0.158074 52.7287 0.125415 52.3233C-0.752069 40.24 2.98464 25.7738 11.033 16.4955C19.5003 6.73414 30.2409 1.06376 43.0648 0.0969271Z" fill="#FDCF64"></path><path d="M18.0585 34.1838C18.8651 34.0938 19.8331 33.936 20.5862 34.3212C21.3761 34.726 21.4673 35.0458 21.7342 35.821C21.6048 36.8994 21.2578 37.3492 20.5658 38.1688C19.8147 38.4245 18.9846 38.671 18.2513 38.2082C17.6203 37.8095 17.3159 37.2174 17.2278 36.4853C17.1126 35.5357 17.5587 34.9134 18.0585 34.1838Z" fill="#FEFEFE"></path><path d="M24.668 12.5225C25.368 12.7745 26.1549 13.2742 26.6627 13.8264C27.2364 14.4494 27.2388 14.9614 27.2407 15.7631C26.821 16.7121 26.3281 17.1194 25.5159 17.7492C24.8344 17.5594 24.0604 17.2069 23.5317 16.7207C22.9531 16.1889 22.7423 15.5733 22.8083 14.7901C22.8921 13.7857 23.9513 13.1066 24.668 12.5225Z" fill="#FEFEFE"></path><path d="M11.723 25.3398C12.4828 25.497 13.2555 25.7533 13.8206 26.3184C14.3894 26.8871 14.6919 27.4824 14.6494 28.302C14.6001 29.2565 14.0036 29.8191 13.3856 30.4606C12.261 30.463 11.6799 30.577 10.6798 30.0323C10.2953 29.4001 10.0673 29.148 10.1067 28.3815C10.1714 27.1078 10.8314 26.1828 11.723 25.3398Z" fill="#FEFEFE"></path><path d="M28.8507 20.4517C29.2876 20.6242 29.3135 20.7277 29.6031 21.0753C29.4552 22.1727 28.5229 23.0052 27.8161 23.8143C28.7959 23.6479 30.3518 23.2234 31.3008 23.5759C31.9694 23.8242 32.0217 23.8439 32.3403 24.5008L31.864 25.117C30.6266 25.8293 29.2389 25.5933 27.8586 25.5403C28.5087 26.4899 29.3862 27.7938 29.3406 28.9757L28.7959 29.3639C27.781 28.9566 27.4057 27.9522 26.6644 27.1468C26.0118 27.7396 25.7395 29.1156 25.4449 29.9752C25.0241 29.7466 24.6556 29.4995 24.2636 29.2265C23.9734 28.15 24.711 27.1788 25.1664 26.1713C25.0056 25.0825 22.8784 25.0504 22.1353 23.8359L22.3466 23.2277L23.0171 23.086C23.3794 23.2739 23.7688 23.5001 24.1632 23.6214C24.8497 23.8328 25.3685 23.9234 26.034 23.6264L25.8553 23.065L24.2341 22.5375L24.0523 22.1321C24.3924 21.5836 24.6574 21.3113 25.1904 20.9489C26.0716 21.1258 26.2324 21.5547 26.8024 22.2264L27.2757 22.2177L28.8507 20.4517Z" fill="#FEFEFE"></path><path d="M61.5636 43.4285C62.3099 43.3595 63.146 43.3053 63.8874 43.4156C65.068 43.5906 66.383 44.5013 67.083 45.4466C67.1699 45.5631 67.25 45.6832 67.3233 45.8077C67.3973 45.9328 67.4645 46.061 67.5248 46.1928C67.5852 46.3241 67.6388 46.4584 67.6851 46.5958C67.7313 46.7332 67.7707 46.8731 67.8021 47.0142C67.8336 47.1553 67.8582 47.2983 67.8749 47.4419C67.8915 47.5861 67.9007 47.7303 67.902 47.8751C67.9038 48.0199 67.8977 48.1647 67.8841 48.3089C67.8712 48.4531 67.8502 48.596 67.8212 48.7384C67.4417 50.5494 66.2413 51.3302 64.7525 52.2459C63.88 52.4683 63.09 52.594 62.1922 52.4135C61.0115 52.1762 59.866 51.462 59.2103 50.4416C58.5645 49.4372 58.3864 48.1709 58.6403 47.0118C59.0254 45.2531 60.0995 44.3374 61.5636 43.4285Z" fill="#020344"></path><path d="M30.4277 43.0956C31.1782 43.0408 31.9122 43.0266 32.6572 43.1628C34.0214 43.4124 35.3605 44.365 36.0962 45.5358C36.1751 45.6603 36.2478 45.7885 36.3138 45.9209C36.3797 46.0528 36.4382 46.1878 36.4906 46.3258C36.543 46.4644 36.588 46.6049 36.6256 46.7473C36.6638 46.8896 36.6946 47.0338 36.7174 47.1799C36.7402 47.3259 36.7562 47.4726 36.7642 47.6198C36.7722 47.7671 36.7728 47.9144 36.766 48.0617C36.7593 48.2089 36.7445 48.3562 36.7229 48.5023C36.7013 48.6483 36.6718 48.7925 36.6354 48.9355C36.2096 50.6411 34.9981 51.5137 33.5513 52.3468C32.8057 52.4066 32.0594 52.4355 31.3157 52.3246C29.9052 52.1151 28.5575 51.2475 27.778 50.0557C27.1094 49.0334 26.9184 47.846 27.2222 46.6623C27.6751 44.8943 28.9291 43.9737 30.4277 43.0956Z" fill="#020344"></path><path d="M45.1248 52.3155C47.9273 52.0019 50.6349 52.387 53.0899 53.8493C55.6971 55.4021 57.5377 58.0506 58.2673 60.977C58.3184 61.1908 58.3647 61.4053 58.4047 61.6209C58.4448 61.8366 58.4799 62.0529 58.5095 62.2704C58.5391 62.4879 58.5631 62.7061 58.5822 62.9248C58.6007 63.1436 58.6136 63.3623 58.621 63.5817C58.629 63.8011 58.6309 64.0204 58.6272 64.2404C58.6241 64.4598 58.6148 64.6792 58.6007 64.8979C58.5859 65.1167 58.5655 65.3354 58.5403 65.5536C58.515 65.7711 58.4842 65.9886 58.4478 66.2049C58.4115 66.4212 58.3702 66.6369 58.3228 66.8513C58.2753 67.0658 58.2229 67.279 58.165 67.4903C58.1071 67.7017 58.0436 67.9118 57.9752 68.1207C57.9068 68.3296 57.8335 68.536 57.7546 68.7406C57.6757 68.9458 57.5919 69.1486 57.5026 69.3488C57.4138 69.5497 57.3202 69.7481 57.221 69.9441C57.1218 70.1394 57.0182 70.3329 56.9092 70.5239C56.8007 70.7143 56.6873 70.9023 56.569 71.0872C54.6409 74.053 51.7737 75.506 48.3845 76.1678C46.0522 76.2874 43.8874 76.1333 41.735 75.1098C38.7531 73.6919 36.56 71.0212 35.5649 67.8896C35.502 67.6949 35.4447 67.4983 35.3923 67.3005C35.3399 67.1027 35.2925 66.9037 35.25 66.7034C35.2081 66.5032 35.1711 66.3017 35.1391 66.0995C35.1076 65.8974 35.0811 65.6947 35.0602 65.4907C35.0386 65.2868 35.0226 65.0828 35.0121 64.8788C35.0016 64.6743 34.9961 64.4697 34.9961 64.2651C34.9961 64.0605 35.0016 63.8559 35.0121 63.6513C35.0226 63.4468 35.0386 63.2428 35.0596 63.0394C35.0811 62.8355 35.1076 62.6327 35.1391 62.4306C35.1705 62.2285 35.2075 62.027 35.25 61.8267C35.2925 61.6265 35.3393 61.4274 35.3917 61.2296C35.4441 61.0318 35.502 60.8353 35.5649 60.6405C35.6271 60.4452 35.6949 60.2523 35.7676 60.0613C35.8403 59.8697 35.9179 59.6805 36.0005 59.4931C36.0831 59.3058 36.1706 59.121 36.2624 58.9379C36.3542 58.7549 36.451 58.575 36.5526 58.3969C38.445 55.033 41.4786 53.2528 45.1248 52.3155Z" fill="#F76E73"></path></svg>