<svg xmlns="http://www.w3.org/2000/svg" width="112" height="113" viewBox="0 0 112 113" fill="none"><path d="M19.8708 33.371C16.7751 27.0725 13.0158 17.4747 16.8106 13.9309C19.2932 11.5989 23.9746 12.2709 31.5288 16.0236C33.1906 16.8535 34.7461 17.709 36.0227 18.4422C36.4636 11.4665 37.9785 1.29836 42.9994 0.117096C44.1393 -0.147672 45.3654 0.0356288 46.627 0.667C50.6194 2.65276 55.0526 9.47054 57.5148 13.6916C61.3705 7.91248 67.7593 -0.0865718 72.6739 1.41547C72.9171 1.48676 73.145 1.57842 73.373 1.69043C77.7555 3.87476 78.5661 13.717 78.5915 20.4227C83.8454 17.882 92.423 14.4197 96.5421 16.4716C97.069 16.7262 97.5199 17.0623 97.8999 17.4697C101.436 21.2883 97.0538 30.7233 93.5833 36.8181C97.7074 37.1592 104.248 37.9789 108.099 39.8934C110.242 40.9576 111.519 42.3374 111.888 43.9871C113.039 49.0534 104.608 54.9445 98.5637 58.4425C104.375 62.3783 112.421 68.8703 110.901 73.8602C109.37 78.8296 99.1311 79.6545 92.1292 79.6188C95.2298 85.9122 98.9842 95.5202 95.2146 99.064C92.722 101.396 88.0354 100.734 80.4509 96.9612C78.7992 96.1363 77.2539 95.286 75.9721 94.5477C75.5313 101.528 74.0215 111.696 69.0057 112.878C67.8658 113.153 66.6396 112.969 65.373 112.338C61.3755 110.357 56.9423 103.529 54.48 99.3033C50.6143 105.077 44.2355 113.071 39.3261 111.579C39.0779 111.508 38.8448 111.411 38.6218 111.299C34.2343 109.12 33.4287 99.2728 33.4034 92.5722C28.1596 95.1077 19.587 98.5701 15.4731 96.5233C14.9461 96.2636 14.4953 95.9276 14.1153 95.5253C10.5687 91.7065 14.9562 82.2666 18.4268 76.1768C14.2977 75.8357 7.76186 75.016 3.91639 73.1014C1.77326 72.0374 0.496503 70.6625 0.116515 69.0078C-1.03358 63.9517 7.39707 58.0555 13.4364 54.5626C7.61493 50.6166 -0.435733 44.1195 1.09435 39.1348C2.61937 34.1602 12.8689 33.3404 19.8708 33.371Z" fill="#FFDA00"></path><path fill-rule="evenodd" clip-rule="evenodd" d="M26.3154 28.9158C11.6174 46.1868 13.6238 72.1697 30.8144 86.9459C48.005 101.722 73.8543 99.6955 88.5522 82.4244C103.26 65.1534 101.244 39.1704 84.0633 24.3944C66.8676 9.61827 41.0183 11.6397 26.3154 28.9158Z" fill="#F2BD0B"></path><path fill-rule="evenodd" clip-rule="evenodd" d="M27.05 29.5268C12.9854 46.0545 14.9006 70.9172 31.3464 85.0517C47.7973 99.1965 72.5371 97.2515 86.6068 80.7289C100.681 64.2012 98.7511 39.3436 82.3053 25.1988C65.8543 11.0592 41.1197 12.9889 27.05 29.5268Z" fill="#FFE000"></path><path fill-rule="evenodd" clip-rule="evenodd" d="M88.7346 36.3343C82.7004 24.9594 73.6821 32.0777 77.1881 37.9586C80.6941 43.8395 93.4009 53.5799 88.0152 72.4192C96.1216 62.6279 93.9937 46.2581 88.7346 36.3343Z" fill="#FFF682"></path><path d="M45.0867 47.5463C44.4889 49.9598 40.5522 50.9883 37.1374 49.252C33.7175 47.5157 32.4661 44.145 33.3577 41.3191C34.1633 38.7427 37.9481 37.3731 40.9069 40.8609C43.6782 44.1246 45.7048 45.0463 45.0867 47.5463Z" fill="#F3766E"></path><path d="M76.0532 70.7032C73.6566 73.0862 69.6947 72.6331 66.3204 69.8021C63.0575 67.0729 62.0594 61.7979 64.7346 59.9954C67.2881 58.2846 68.2811 60.6319 73.0943 62.6329C77.7606 64.5779 78.4446 68.3153 76.0532 70.7032Z" fill="#F3766E"></path><path d="M44.4737 50.4587C44.4737 50.4587 36.1546 64.359 44.7828 70.0974C54.6979 76.6963 61.8265 61.3957 61.8265 61.3957C61.8265 61.3957 52.3977 59.2623 44.4737 50.4587Z" fill="#54311E"></path><path d="M54.2976 70.3876C53.5123 68.3815 52.0886 66.5637 49.6922 65.2348C46.2621 63.3254 43.4705 63.7887 41.2615 65.2654C41.7833 67.1187 42.8574 68.8143 44.7877 70.0974C48.4002 72.5007 51.6326 71.9915 54.2976 70.3876Z" fill="#F1645C"></path><path d="M58.4724 50.9831C58.442 48.5137 57.4642 47.6124 56.6586 47.2917C56.5827 47.2612 56.5117 47.2357 56.4508 47.2153C55.2501 46.8792 53.7707 47.5564 52.9854 48.7938C52.1393 50.1328 52.3166 51.7164 53.4616 53.0402C53.5022 53.086 53.5478 53.1166 53.5985 53.137C53.6339 53.1573 53.6694 53.1624 53.7048 53.1624C53.8112 53.1726 53.9075 53.137 53.9886 53.0656C54.1406 52.9333 54.1659 52.694 54.0291 52.5362C52.7118 51.0188 53.3046 49.6949 53.6187 49.1909C54.2368 48.2235 55.3565 47.6888 56.2431 47.9384C57.1704 48.2082 57.6972 49.2978 57.7226 50.9831C57.7226 51.197 57.9151 51.3702 58.1026 51.3651C58.2039 51.3599 58.2951 51.3192 58.3711 51.248C58.4318 51.1767 58.4724 51.085 58.4724 50.9831Z" fill="#6C3E27"></path><path d="M74.3305 49.2163C74.2899 49.201 74.2546 49.1858 74.214 49.1705C72.3292 48.4271 69.7453 48.8955 68.1646 52.4648C68.1038 52.6023 68.0987 52.7551 68.1494 52.8926C68.2001 53.0351 68.3064 53.147 68.4332 53.2083C68.7016 53.3508 69.0513 53.2083 69.1779 52.9281C70.2571 50.5096 71.9695 49.4862 73.7631 50.199C73.8036 50.2142 73.8442 50.2347 73.8897 50.2499C76.2812 51.2988 77.8264 54.8834 76.2963 58.5698C76.1747 58.8548 76.3166 59.1808 76.6003 59.303L76.6054 59.308C76.8891 59.4201 77.2083 59.2877 77.3299 59.0026C79.1183 54.7052 77.2134 50.474 74.3305 49.2163Z" fill="#6C3E27"></path><path d="M48.5573 32.6581C48.5117 32.6378 48.4509 32.6124 48.4003 32.5971C46.6168 31.8842 44.1748 32.3475 42.6599 35.7589C42.5383 36.039 42.6649 36.375 42.9335 36.4921C43.2172 36.6399 43.5466 36.5074 43.6782 36.2172C44.7068 33.9004 46.2926 32.9636 48.0253 33.651L48.1165 33.6867C50.3813 34.6745 51.8353 38.0655 50.3863 41.5482C50.2697 41.8385 50.4066 42.1643 50.6903 42.2866L50.7004 42.2916C50.9842 42.4036 51.3033 42.261 51.4199 41.9861C53.1222 37.8924 51.3135 33.8597 48.5573 32.6581Z" fill="#6C3E27"></path></svg>